<svg width="82" height="49" viewBox="0 0 82 49" fill="none" xmlns="http://www.w3.org/2000/svg">
<g clip-path="url(#clip0_1_459)">
<g clip-path="url(#clip1_1_459)">
<path d="M34 23V21C34 19.9391 34.4214 18.9217 35.1716 18.1716C35.9217 17.4214 36.9391 17 38 17H42C43.0609 17 44.0783 17.4214 44.8284 18.1716C45.5786 18.9217 46 19.9391 46 21V23M36 9C36 10.0609 36.4214 11.0783 37.1716 11.8284C37.9217 12.5786 38.9391 13 40 13C41.0609 13 42.0783 12.5786 42.8284 11.8284C43.5786 11.0783 44 10.0609 44 9C44 7.93913 43.5786 6.92172 42.8284 6.17157C42.0783 5.42143 41.0609 5 40 5C38.9391 5 37.9217 5.42143 37.1716 6.17157C36.4214 6.92172 36 7.93913 36 9Z" stroke="#003C57" stroke-width="2" stroke-linecap="round" stroke-linejoin="round"/>
</g>
</g>
<path d="M17.6949 33.08H19.2009L22.2489 41H20.6529L20.0349 39.29H16.8669L16.2369 41H14.6349L17.6949 33.08ZM17.3589 37.964H19.5429L18.4569 34.892H18.4389L17.3589 37.964ZM26.7489 39.662C27.1649 39.662 27.5349 39.604 27.8589 39.488C28.1829 39.368 28.4209 39.25 28.5729 39.134L29.2149 40.412C29.0309 40.572 28.7129 40.734 28.2609 40.898C27.8129 41.062 27.2769 41.144 26.6529 41.144C26.0689 41.144 25.5229 41.042 25.0149 40.838C24.5069 40.63 24.0609 40.342 23.6769 39.974C23.2929 39.602 22.9929 39.168 22.7769 38.672C22.5609 38.172 22.4529 37.632 22.4529 37.052C22.4529 36.472 22.5589 35.932 22.7709 35.432C22.9869 34.928 23.2869 34.49 23.6709 34.118C24.0549 33.746 24.5009 33.456 25.0089 33.248C25.5209 33.04 26.0689 32.936 26.6529 32.936C27.2769 32.936 27.8129 33.018 28.2609 33.182C28.7129 33.346 29.0309 33.508 29.2149 33.668L28.5729 34.946C28.4209 34.83 28.1829 34.714 27.8589 34.598C27.5349 34.478 27.1649 34.418 26.7489 34.418C26.3249 34.418 25.9469 34.486 25.6149 34.622C25.2869 34.758 25.0069 34.948 24.7749 35.192C24.5469 35.432 24.3729 35.71 24.2529 36.026C24.1329 36.342 24.0729 36.678 24.0729 37.034C24.0729 37.394 24.1329 37.734 24.2529 38.054C24.3729 38.37 24.5469 38.65 24.7749 38.894C25.0069 39.134 25.2869 39.322 25.6149 39.458C25.9469 39.594 26.3249 39.662 26.7489 39.662ZM34.4247 39.662C34.8407 39.662 35.2107 39.604 35.5347 39.488C35.8587 39.368 36.0967 39.25 36.2487 39.134L36.8907 40.412C36.7067 40.572 36.3887 40.734 35.9367 40.898C35.4887 41.062 34.9527 41.144 34.3287 41.144C33.7447 41.144 33.1987 41.042 32.6907 40.838C32.1827 40.63 31.7367 40.342 31.3527 39.974C30.9687 39.602 30.6687 39.168 30.4527 38.672C30.2367 38.172 30.1287 37.632 30.1287 37.052C30.1287 36.472 30.2347 35.932 30.4467 35.432C30.6627 34.928 30.9627 34.49 31.3467 34.118C31.7307 33.746 32.1767 33.456 32.6847 33.248C33.1967 33.04 33.7447 32.936 34.3287 32.936C34.9527 32.936 35.4887 33.018 35.9367 33.182C36.3887 33.346 36.7067 33.508 36.8907 33.668L36.2487 34.946C36.0967 34.83 35.8587 34.714 35.5347 34.598C35.2107 34.478 34.8407 34.418 34.4247 34.418C34.0007 34.418 33.6227 34.486 33.2907 34.622C32.9627 34.758 32.6827 34.948 32.4507 35.192C32.2227 35.432 32.0487 35.71 31.9287 36.026C31.8087 36.342 31.7487 36.678 31.7487 37.034C31.7487 37.394 31.8087 37.734 31.9287 38.054C32.0487 38.37 32.2227 38.65 32.4507 38.894C32.6827 39.134 32.9627 39.322 33.2907 39.458C33.6227 39.594 34.0007 39.662 34.4247 39.662ZM39.2925 37.034C39.2925 37.538 39.3965 37.994 39.6045 38.402C39.8165 38.81 40.1065 39.134 40.4745 39.374C40.8425 39.61 41.2685 39.728 41.7525 39.728C42.2365 39.728 42.6625 39.61 43.0305 39.374C43.4025 39.134 43.6925 38.81 43.9005 38.402C44.1085 37.994 44.2125 37.538 44.2125 37.034C44.2125 36.53 44.1085 36.076 43.9005 35.672C43.6925 35.264 43.4025 34.94 43.0305 34.7C42.6625 34.46 42.2365 34.34 41.7525 34.34C41.2685 34.34 40.8425 34.46 40.4745 34.7C40.1065 34.94 39.8165 35.264 39.6045 35.672C39.3965 36.076 39.2925 36.53 39.2925 37.034ZM37.7325 37.034C37.7325 36.458 37.8325 35.922 38.0325 35.426C38.2365 34.926 38.5205 34.49 38.8845 34.118C39.2485 33.746 39.6745 33.456 40.1625 33.248C40.6545 33.04 41.1845 32.936 41.7525 32.936C42.3285 32.936 42.8605 33.04 43.3485 33.248C43.8365 33.456 44.2605 33.746 44.6205 34.118C44.9845 34.49 45.2665 34.926 45.4665 35.426C45.6665 35.922 45.7665 36.458 45.7665 37.034C45.7665 37.614 45.6685 38.154 45.4725 38.654C45.2765 39.15 44.9985 39.586 44.6385 39.962C44.2785 40.334 43.8545 40.624 43.3665 40.832C42.8785 41.04 42.3405 41.144 41.7525 41.144C41.1565 41.144 40.6125 41.04 40.1205 40.832C39.6325 40.624 39.2085 40.334 38.8485 39.962C38.4925 39.586 38.2165 39.15 38.0205 38.654C37.8285 38.154 37.7325 37.614 37.7325 37.034ZM51.573 33.08H53.073V37.964C53.073 38.616 52.943 39.18 52.683 39.656C52.427 40.132 52.065 40.5 51.597 40.76C51.133 41.016 50.585 41.144 49.953 41.144C49.317 41.144 48.763 41.016 48.291 40.76C47.823 40.5 47.459 40.132 47.199 39.656C46.943 39.18 46.815 38.616 46.815 37.964V33.08H48.309V37.886C48.309 38.286 48.377 38.628 48.513 38.912C48.653 39.192 48.847 39.406 49.095 39.554C49.343 39.698 49.629 39.77 49.953 39.77C50.273 39.77 50.555 39.698 50.799 39.554C51.043 39.406 51.233 39.192 51.369 38.912C51.505 38.628 51.573 38.286 51.573 37.886V33.08ZM55.8193 34.466L55.9213 34.484V41H54.4273V33.08H56.4913L60.0433 39.584L59.9413 39.608V33.08H61.4353V41H59.3593L55.8193 34.466ZM64.4242 34.406H62.4382V33.08H67.9042V34.406H65.9242V41H64.4242V34.406Z" fill="#003C57"/>
<defs>
<clipPath id="clip0_1_459">
<rect width="18" height="20" fill="white" transform="translate(31.75 3.5)"/>
</clipPath>
<clipPath id="clip1_1_459">
<rect width="18" height="20" fill="white" transform="translate(31.75 3.5)"/>
</clipPath>
</defs>
</svg>
