<svg width="82" height="49" viewBox="0 0 82 49" fill="none" xmlns="http://www.w3.org/2000/svg">
<g clip-path="url(#clip0_1_448)">
<g clip-path="url(#clip1_1_448)">
<path d="M32.1176 26C31.5353 26 31.0366 25.7844 30.6215 25.3532C30.2065 24.922 29.9993 24.4043 30 23.8H32.1176V26ZM30 22.15V19.95H32.1176V22.15H30ZM30 18.3V16.1H32.1176V18.3H30ZM30 14.45V12.25H32.1176V14.45H30ZM30 10.6C30 9.995 30.2075 9.4769 30.6226 9.0457C31.0376 8.6145 31.536 8.39927 32.1176 8.4V10.6H30ZM33.7059 26V23.8H35.8235V26H33.7059ZM36.3529 21.6C35.7706 21.6 35.2719 21.3844 34.8568 20.9532C34.4418 20.522 34.2346 20.0043 34.2353 19.4V6.2C34.2353 5.595 34.4428 5.0769 34.8579 4.6457C35.2729 4.2145 35.7713 3.99927 36.3529 4H45.8824C46.4647 4 46.9634 4.2156 47.3785 4.6468C47.7935 5.078 48.0007 5.59573 48 6.2V19.4C48 20.005 47.7925 20.5231 47.3774 20.9543C46.9624 21.3855 46.464 21.6007 45.8824 21.6H36.3529ZM36.3529 19.4H45.8824V6.2H36.3529V19.4ZM37.4118 26V23.8H39.5294V26H37.4118ZM41.1176 26V23.8H43.2353C43.2353 24.405 43.0278 24.9231 42.6127 25.3543C42.1976 25.7855 41.6993 26.0007 41.1176 26Z" fill="#003C57"/>
</g>
</g>
<path d="M16.1539 33.08H17.6599L20.7079 41H19.1119L18.4939 39.29H15.3259L14.6959 41H13.0939L16.1539 33.08ZM15.8179 37.964H18.0019L16.9159 34.892H16.8979L15.8179 37.964ZM21.4571 33.08H22.9571V39.674H25.9271V41H21.4571V33.08ZM27.1876 33.08H28.6876V39.674H31.6576V41H27.1876V33.08ZM36.0295 33.08H38.6635C39.1635 33.08 39.6155 33.166 40.0195 33.338C40.4275 33.51 40.7515 33.774 40.9915 34.13C41.2315 34.482 41.3515 34.932 41.3515 35.48C41.3515 36.024 41.2315 36.482 40.9915 36.854C40.7515 37.226 40.4275 37.508 40.0195 37.7C39.6155 37.888 39.1635 37.982 38.6635 37.982H37.5235V41H36.0295V33.08ZM37.5235 36.776H38.2495C38.5295 36.776 38.7815 36.736 39.0055 36.656C39.2335 36.572 39.4155 36.438 39.5515 36.254C39.6875 36.07 39.7555 35.824 39.7555 35.516C39.7555 35.204 39.6875 34.96 39.5515 34.784C39.4155 34.604 39.2335 34.476 39.0055 34.4C38.7815 34.32 38.5295 34.28 38.2495 34.28H37.5235V36.776ZM43.7163 37.034C43.7163 37.538 43.8203 37.994 44.0283 38.402C44.2403 38.81 44.5303 39.134 44.8983 39.374C45.2663 39.61 45.6923 39.728 46.1763 39.728C46.6603 39.728 47.0863 39.61 47.4543 39.374C47.8263 39.134 48.1163 38.81 48.3243 38.402C48.5323 37.994 48.6363 37.538 48.6363 37.034C48.6363 36.53 48.5323 36.076 48.3243 35.672C48.1163 35.264 47.8263 34.94 47.4543 34.7C47.0863 34.46 46.6603 34.34 46.1763 34.34C45.6923 34.34 45.2663 34.46 44.8983 34.7C44.5303 34.94 44.2403 35.264 44.0283 35.672C43.8203 36.076 43.7163 36.53 43.7163 37.034ZM42.1563 37.034C42.1563 36.458 42.2563 35.922 42.4563 35.426C42.6603 34.926 42.9443 34.49 43.3083 34.118C43.6723 33.746 44.0983 33.456 44.5863 33.248C45.0783 33.04 45.6083 32.936 46.1763 32.936C46.7523 32.936 47.2843 33.04 47.7723 33.248C48.2603 33.456 48.6843 33.746 49.0443 34.118C49.4083 34.49 49.6903 34.926 49.8903 35.426C50.0903 35.922 50.1903 36.458 50.1903 37.034C50.1903 37.614 50.0923 38.154 49.8963 38.654C49.7003 39.15 49.4223 39.586 49.0623 39.962C48.7023 40.334 48.2783 40.624 47.7903 40.832C47.3023 41.04 46.7643 41.144 46.1763 41.144C45.5803 41.144 45.0363 41.04 44.5443 40.832C44.0563 40.624 43.6323 40.334 43.2723 39.962C42.9163 39.586 42.6403 39.15 42.4443 38.654C42.2523 38.154 42.1563 37.614 42.1563 37.034ZM54.0048 32.936C54.4808 32.936 54.8948 32.99 55.2468 33.098C55.6028 33.202 55.8848 33.314 56.0928 33.434C56.3048 33.554 56.4328 33.632 56.4768 33.668L55.7448 34.886C55.6808 34.834 55.5708 34.762 55.4148 34.67C55.2628 34.574 55.0788 34.49 54.8628 34.418C54.6468 34.342 54.4128 34.304 54.1608 34.304C53.7968 34.304 53.5048 34.374 53.2848 34.514C53.0688 34.65 52.9608 34.848 52.9608 35.108C52.9608 35.284 53.0188 35.442 53.1348 35.582C53.2508 35.718 53.4208 35.846 53.6448 35.966C53.8728 36.086 54.1508 36.212 54.4788 36.344C54.7668 36.456 55.0408 36.586 55.3008 36.734C55.5648 36.882 55.7988 37.056 56.0028 37.256C56.2108 37.456 56.3748 37.688 56.4948 37.952C56.6188 38.216 56.6808 38.518 56.6808 38.858C56.6808 39.238 56.6028 39.57 56.4468 39.854C56.2948 40.138 56.0828 40.376 55.8108 40.568C55.5428 40.76 55.2348 40.904 54.8868 41C54.5388 41.096 54.1728 41.144 53.7888 41.144C53.2688 41.144 52.8008 41.084 52.3848 40.964C51.9728 40.84 51.6388 40.708 51.3828 40.568C51.1268 40.428 50.9768 40.338 50.9328 40.298L51.7008 39.032C51.7488 39.068 51.8388 39.126 51.9708 39.206C52.1068 39.286 52.2708 39.368 52.4628 39.452C52.6588 39.536 52.8708 39.608 53.0988 39.668C53.3308 39.728 53.5668 39.758 53.8068 39.758C54.2388 39.758 54.5648 39.668 54.7848 39.488C55.0048 39.308 55.1148 39.074 55.1148 38.786C55.1148 38.57 55.0448 38.38 54.9048 38.216C54.7648 38.052 54.5668 37.902 54.3108 37.766C54.0588 37.626 53.7568 37.484 53.4048 37.34C53.0528 37.192 52.7248 37.02 52.4208 36.824C52.1208 36.624 51.8788 36.38 51.6948 36.092C51.5108 35.8 51.4188 35.442 51.4188 35.018C51.4188 34.598 51.5368 34.232 51.7728 33.92C52.0128 33.608 52.3288 33.366 52.7208 33.194C53.1168 33.022 53.5448 32.936 54.0048 32.936ZM59.391 34.406H57.405V33.08H62.871V34.406H60.891V41H59.391V34.406ZM66.6259 32.936C67.1019 32.936 67.5159 32.99 67.8679 33.098C68.2239 33.202 68.5059 33.314 68.7139 33.434C68.9259 33.554 69.0539 33.632 69.0979 33.668L68.3659 34.886C68.3019 34.834 68.1919 34.762 68.0359 34.67C67.8839 34.574 67.6999 34.49 67.4839 34.418C67.2679 34.342 67.0339 34.304 66.7819 34.304C66.4179 34.304 66.1259 34.374 65.9059 34.514C65.6899 34.65 65.5819 34.848 65.5819 35.108C65.5819 35.284 65.6399 35.442 65.7559 35.582C65.8719 35.718 66.0419 35.846 66.2659 35.966C66.4939 36.086 66.7719 36.212 67.0999 36.344C67.3879 36.456 67.6619 36.586 67.9219 36.734C68.1859 36.882 68.4199 37.056 68.6239 37.256C68.8319 37.456 68.9959 37.688 69.1159 37.952C69.2399 38.216 69.3019 38.518 69.3019 38.858C69.3019 39.238 69.2239 39.57 69.0679 39.854C68.9159 40.138 68.7039 40.376 68.4319 40.568C68.1639 40.76 67.8559 40.904 67.5079 41C67.1599 41.096 66.7939 41.144 66.4099 41.144C65.8899 41.144 65.4219 41.084 65.0059 40.964C64.5939 40.84 64.2599 40.708 64.0039 40.568C63.7479 40.428 63.5979 40.338 63.5539 40.298L64.3219 39.032C64.3699 39.068 64.4599 39.126 64.5919 39.206C64.7279 39.286 64.8919 39.368 65.0839 39.452C65.2799 39.536 65.4919 39.608 65.7199 39.668C65.9519 39.728 66.1879 39.758 66.4279 39.758C66.8599 39.758 67.1859 39.668 67.4059 39.488C67.6259 39.308 67.7359 39.074 67.7359 38.786C67.7359 38.57 67.6659 38.38 67.5259 38.216C67.3859 38.052 67.1879 37.902 66.9319 37.766C66.6799 37.626 66.3779 37.484 66.0259 37.34C65.6739 37.192 65.3459 37.02 65.0419 36.824C64.7419 36.624 64.4999 36.38 64.3159 36.092C64.1319 35.8 64.0399 35.442 64.0399 35.018C64.0399 34.598 64.1579 34.232 64.3939 33.92C64.6339 33.608 64.9499 33.366 65.3419 33.194C65.7379 33.022 66.1659 32.936 66.6259 32.936Z" fill="#003C57"/>
<defs>
<clipPath id="clip0_1_448">
<rect width="28" height="27" fill="white" transform="translate(27.25)"/>
</clipPath>
<clipPath id="clip1_1_448">
<rect width="28" height="27" fill="white" transform="translate(27.25)"/>
</clipPath>
</defs>
</svg>
