<svg width="82" height="49" viewBox="0 0 82 49" fill="none" xmlns="http://www.w3.org/2000/svg">
<path d="M50.2249 11.5391L42.0999 3.87318C42.0959 3.86972 42.0922 3.86599 42.0887 3.86201C41.7896 3.58996 41.3998 3.43921 40.9954 3.43921C40.5911 3.43921 40.2013 3.58996 39.9021 3.86201L39.8909 3.87318L31.7751 11.5391C31.6095 11.6914 31.4774 11.8763 31.387 12.0822C31.2966 12.2882 31.25 12.5106 31.25 12.7355V22.125C31.25 22.556 31.4212 22.9693 31.726 23.274C32.0307 23.5788 32.444 23.75 32.875 23.75H37.75C38.181 23.75 38.5943 23.5788 38.899 23.274C39.2038 22.9693 39.375 22.556 39.375 22.125V17.25H42.625V22.125C42.625 22.556 42.7962 22.9693 43.101 23.274C43.4057 23.5788 43.819 23.75 44.25 23.75H49.125C49.556 23.75 49.9693 23.5788 50.274 23.274C50.5788 22.9693 50.75 22.556 50.75 22.125V12.7355C50.75 12.5106 50.7034 12.2882 50.613 12.0822C50.5226 11.8763 50.3905 11.6914 50.2249 11.5391ZM49.125 22.125H44.25V17.25C44.25 16.819 44.0788 16.4057 43.774 16.1009C43.4693 15.7962 43.056 15.625 42.625 15.625H39.375C38.944 15.625 38.5307 15.7962 38.226 16.1009C37.9212 16.4057 37.75 16.819 37.75 17.25V22.125H32.875V12.7355L32.8862 12.7254L41 5.06248L49.1148 12.7233L49.126 12.7335L49.125 22.125Z" fill="#003C57"/>
<path d="M30 38.0879H26.856V41.3999H25.368V33.4799H26.856V36.7679H30V33.4799H31.488V41.3999H30V38.0879ZM34.198 37.4339C34.198 37.9379 34.302 38.3939 34.51 38.8019C34.722 39.2099 35.012 39.5339 35.38 39.7739C35.748 40.0099 36.174 40.1279 36.658 40.1279C37.142 40.1279 37.568 40.0099 37.936 39.7739C38.308 39.5339 38.598 39.2099 38.806 38.8019C39.014 38.3939 39.118 37.9379 39.118 37.4339C39.118 36.9299 39.014 36.4759 38.806 36.0719C38.598 35.6639 38.308 35.3399 37.936 35.0999C37.568 34.8599 37.142 34.7399 36.658 34.7399C36.174 34.7399 35.748 34.8599 35.38 35.0999C35.012 35.3399 34.722 35.6639 34.51 36.0719C34.302 36.4759 34.198 36.9299 34.198 37.4339ZM32.638 37.4339C32.638 36.8579 32.738 36.3219 32.938 35.8259C33.142 35.3259 33.426 34.8899 33.79 34.5179C34.154 34.1459 34.58 33.8559 35.068 33.6479C35.56 33.4399 36.09 33.3359 36.658 33.3359C37.234 33.3359 37.766 33.4399 38.254 33.6479C38.742 33.8559 39.166 34.1459 39.526 34.5179C39.89 34.8899 40.172 35.3259 40.372 35.8259C40.572 36.3219 40.672 36.8579 40.672 37.4339C40.672 38.0139 40.574 38.5539 40.378 39.0539C40.182 39.5499 39.904 39.9859 39.544 40.3619C39.184 40.7339 38.76 41.0239 38.272 41.2319C37.784 41.4399 37.246 41.5439 36.658 41.5439C36.062 41.5439 35.518 41.4399 35.026 41.2319C34.538 41.0239 34.114 40.7339 33.754 40.3619C33.398 39.9859 33.122 39.5499 32.926 39.0539C32.734 38.5539 32.638 38.0139 32.638 37.4339ZM49.7065 33.4799V41.3999H48.2125V36.3299L48.2845 35.1779L48.0145 36.4859L46.4605 40.8359H44.9845L43.4365 36.4859L43.1725 35.1779L43.2385 36.3299V41.3999H41.7385V33.4799H43.8145L45.6265 39.1259L45.7225 39.6659L45.8185 39.1259L47.6365 33.4799H49.7065ZM51.2313 33.4799H56.1453V34.8059H52.7193V36.7859H56.0973V38.0699H52.7193V40.0739H56.1453V41.3999H51.2313V33.4799Z" fill="#003C57"/>
</svg>
