<svg width="155" height="24" viewBox="0 0 155 24" fill="none" xmlns="http://www.w3.org/2000/svg">
<g clip-path="url(#clip0_1_14)">
<path d="M28.1388 21.7821C29.0533 21.7821 29.6913 21.1544 29.6913 20.2546V7.63738C29.6913 7.42814 29.5211 7.26074 29.3085 7.26074C29.0958 7.26074 28.9257 7.42814 28.9257 7.63738V20.2546C28.9257 20.8824 28.4365 20.987 28.1813 20.987C28.1175 20.987 27.437 20.987 27.437 20.2546V9.10207C27.437 8.89283 27.2669 8.72543 27.0542 8.72543C26.8415 8.72543 26.6714 8.89283 26.6714 9.10207V20.2546C26.5863 21.259 27.3945 21.7821 28.1388 21.7821Z" fill="#111111"/>
<path d="M3.1505 15.5257H10.7852C10.9979 15.5257 11.168 15.3584 11.168 15.17V8.59985C11.168 8.39061 10.9979 8.24414 10.7852 8.24414H3.1505C2.93783 8.24414 2.7677 8.41153 2.7677 8.59985V15.17C2.78897 15.3584 2.93783 15.5257 3.1505 15.5257ZM3.57583 8.95556H10.4024V14.7934H3.51203V8.95556H3.57583Z" fill="#111111"/>
<path d="M3.27806 5.98426H21.6312C21.8439 5.98426 22.014 5.81687 22.014 5.60763V2.6364C22.014 2.42716 21.8439 2.25977 21.6312 2.25977H3.27806C3.0654 2.25977 2.89526 2.42716 2.89526 2.6364V5.62855C2.91653 5.8378 3.0654 5.98426 3.27806 5.98426ZM3.7034 2.99211H21.2484V5.25192H3.7034V2.99211Z" fill="#111111"/>
<path d="M3.0867 18.0158H9.31783C9.48797 18.0158 9.63683 17.8275 9.63683 17.6183C9.63683 17.3881 9.48797 17.2207 9.31783 17.2207H3.0867C2.91657 17.2207 2.7677 17.409 2.7677 17.6183C2.7677 17.8275 2.8953 18.0158 3.0867 18.0158Z" fill="#111111"/>
<path d="M3.0867 20.2336H10.7214C10.9128 20.2336 11.0404 20.0453 11.0404 19.836C11.0404 19.6059 10.8916 19.4385 10.7214 19.4385H3.0867C2.8953 19.4385 2.7677 19.6268 2.7677 19.836C2.7677 20.0662 2.8953 20.2336 3.0867 20.2336Z" fill="#111111"/>
<path d="M3.70342 24H28.1388C30.223 24 31.8818 22.3261 31.8818 20.2755V7.00959C31.8818 6.80035 31.7116 6.69573 31.5628 6.69573C31.3501 6.69573 31.2438 6.86312 31.2438 7.00959V20.2546C31.2438 21.9285 29.8614 23.2886 28.1601 23.2886C26.4588 23.2886 25.0764 21.9285 25.0764 20.2546V0.313862C25.0764 0.104621 24.9063 0 24.7574 0H0.322022C0.109355 0 0.00302175 0.167393 0.00302175 0.313862V20.2546C-0.0820449 22.3051 1.64056 24 3.70342 24ZM0.619755 0.690498H24.3534V20.2755C24.3534 20.4847 24.4172 20.7568 24.4172 20.966C24.4172 21.0288 24.4172 21.0706 24.4172 21.0706C24.481 21.2799 24.5235 21.4891 24.6298 21.6983C24.6298 21.7611 24.6936 21.7611 24.6936 21.803C24.8 21.9704 24.8638 22.1796 24.9701 22.3261C24.9701 22.3261 24.9701 22.3888 25.0339 22.3888C25.1402 22.5562 25.3104 22.7027 25.4592 22.8701C25.523 22.9329 25.523 22.9329 25.5656 22.9747C25.7357 23.1421 25.842 23.2467 26.0547 23.3514H3.76722C2.06589 23.3514 0.683554 21.9913 0.683554 20.3174L0.619755 0.690498Z" fill="#111111"/>
<path d="M19.6322 11.4668H12.763C12.444 11.4668 12.1888 11.2785 12.1888 11.0484C12.1888 10.8182 12.444 10.6299 12.763 10.6299H19.6322C19.9512 10.6299 20.2064 10.8182 20.2064 11.0484C20.2064 11.2785 19.9512 11.4668 19.6322 11.4668Z" fill="#111111"/>
<path d="M18.7815 13.6631H12.763C12.444 13.6631 12.1888 13.4748 12.1888 13.2447C12.1888 13.0145 12.444 12.8262 12.763 12.8262H18.7815C19.1005 12.8262 19.3557 13.0145 19.3557 13.2447C19.3557 13.4748 19.1005 13.6631 18.7815 13.6631Z" fill="#111111"/>
<path d="M21.0783 9.26958H12.763C12.444 9.26958 12.1888 9.08127 12.1888 8.8511C12.1888 8.62093 12.444 8.43262 12.763 8.43262H21.0783C21.3973 8.43262 21.6525 8.62093 21.6525 8.8511C21.6525 9.08127 21.376 9.26958 21.0783 9.26958Z" fill="#111111"/>
<path d="M17.5693 15.8604H12.763C12.444 15.8604 12.1888 15.6721 12.1888 15.4419C12.1888 15.2118 12.444 15.0234 12.763 15.0234H17.5693C17.8883 15.0234 18.1435 15.2118 18.1435 15.4419C18.1435 15.6721 17.8883 15.8604 17.5693 15.8604Z" fill="#111111"/>
<path d="M16.6548 18.0362H12.763C12.444 18.0362 12.1888 17.8479 12.1888 17.6177C12.1888 17.3875 12.444 17.1992 12.763 17.1992H16.6548C16.9738 17.1992 17.229 17.3875 17.229 17.6177C17.229 17.8479 16.9738 18.0362 16.6548 18.0362Z" fill="#111111"/>
<path d="M15.23 20.2335H12.763C12.444 20.2335 12.1888 20.0451 12.1888 19.815C12.1888 19.5848 12.444 19.3965 12.763 19.3965H15.23C15.549 19.3965 15.8042 19.5848 15.8042 19.815C15.8042 20.0661 15.549 20.2335 15.23 20.2335Z" fill="#111111"/>
<path d="M56.0406 3.03001V17.4567H52.5634V10.4907L49.568 17.4567H46.6564L43.7029 10.5319V17.4567H40.2257V3.03001H43.5562L48.1436 13.0463L52.7101 3.03001H56.0406ZM67.2054 6.69852H70.4941L63.8329 21.3726H60.5233L62.5342 17.0858L57.8211 6.69852H61.1098L64.1681 13.5821L67.2054 6.69852ZM92.7816 3.03001L87.9429 17.4567H85.4921L82.2034 8.84192L78.9357 17.4567H76.4849L71.6461 3.03001H75.2071L77.8464 11.0265L80.8628 3.03001H83.544L86.5813 11.0265L89.2207 3.03001H92.7816ZM99.8827 6.55425C102.354 6.55425 105.811 8.38851 105.119 13.2318H97.5157C97.8927 14.3447 98.8772 14.9218 100.197 14.9218C101.537 14.9218 101.956 14.6332 102.711 14.3241L104.533 16.0553C103.569 16.9827 102.271 17.6628 100.071 17.6628C97.369 17.6628 94.1432 15.8286 94.1432 12.1395C94.1432 8.38851 97.4109 6.55425 99.8827 6.55425ZM99.8827 9.33655C98.9401 9.33655 97.9765 9.8724 97.5576 10.9441H102.187C101.852 9.8724 100.825 9.33655 99.8827 9.33655ZM113.121 6.55425C115.614 6.55425 118.484 8.38851 118.484 12.0776C118.484 15.911 115.614 17.6628 113.121 17.6628C111.445 17.6628 110.461 16.756 110.314 16.385V17.4567H107.005V6.73974V2.88574H110.314V7.729C110.461 7.5023 111.445 6.55425 113.121 6.55425ZM112.639 14.7981C114.064 14.7981 115.279 13.8501 115.279 12.0776C115.279 10.367 114.064 9.41899 112.639 9.41899C111.278 9.41899 110.168 10.3464 110.168 12.0776C110.168 13.8707 111.278 14.7981 112.639 14.7981ZM125.459 10.1197C125.166 9.37777 124.726 9.13045 124.244 9.13045C123.804 9.13045 123.364 9.37777 123.364 9.78996C123.364 10.1815 123.616 10.4083 124.097 10.5731L125.48 11.0471C127.03 11.6036 128.601 12.1601 128.601 14.3035C128.601 16.4675 126.402 17.7041 124.139 17.7041C122.107 17.7041 120.201 16.5293 119.74 14.6538L122.338 13.8501C122.61 14.4477 123.092 15.1279 124.139 15.1279C124.851 15.1279 125.312 14.6744 125.312 14.2622C125.312 14.0562 125.145 13.7882 124.621 13.5821L123.343 13.1287C121.165 12.3456 120.138 11.2532 120.138 9.72813C120.138 7.729 122.024 6.55425 124.097 6.55425C126.213 6.55425 127.616 7.68778 128.245 9.39838L125.459 10.1197ZM133.607 2.88574V5.62682H130.298V2.88574H133.607ZM133.607 6.73974V17.4567H130.298V6.73974H133.607ZM141.043 14.7363C141.63 14.7363 142.049 14.6538 142.51 14.5302V17.23C142.049 17.4361 141.295 17.5804 140.185 17.5804C138.362 17.5804 136.833 16.9827 136.833 13.6852V9.41899H135.304V6.73974H136.833V4.22537H140.143V6.73974H142.468V9.41899H140.143V13.6852C140.143 14.1592 140.268 14.7363 141.043 14.7363ZM149.674 6.55425C152.145 6.55425 155.602 8.38851 154.91 13.2318H147.307C147.684 14.3447 148.668 14.9218 149.988 14.9218C151.328 14.9218 151.747 14.6332 152.501 14.3241L154.324 16.0553C153.36 16.9827 152.062 17.6628 149.862 17.6628C147.16 17.6628 143.934 15.8286 143.934 12.1395C143.934 8.38851 147.202 6.55425 149.674 6.55425ZM149.674 9.33655C148.731 9.33655 147.767 9.8724 147.349 10.9441H151.978C151.643 9.8724 150.616 9.33655 149.674 9.33655Z" fill="#111111"/>
</g>
<defs>
<clipPath id="clip0_1_14">
<rect width="155" height="24" fill="white"/>
</clipPath>
</defs>
</svg>
