<svg width="30" height="18" viewBox="0 0 30 18" fill="none" xmlns="http://www.w3.org/2000/svg">
<g clip-path="url(#clip0_1_5)">
<g clip-path="url(#clip1_1_5)">
<path d="M14.6175 9.82034C10.1676 9.82034 5.71773 9.82034 1.26784 9.82034C1.07059 9.82415 0.874436 9.79023 0.689936 9.72038C0.526743 9.65838 0.389994 9.54193 0.302735 9.39073C0.215475 9.23952 0.183051 9.06283 0.211015 8.89051C0.236369 8.71448 0.318446 8.5515 0.444739 8.42629C0.571032 8.30108 0.734669 8.2205 0.910906 8.19666C1.02002 8.17948 1.13043 8.17178 1.24087 8.17365H28.0292C28.2545 8.14314 28.4832 8.19429 28.674 8.31791C28.8647 8.44154 29.0049 8.62941 29.0691 8.84748C29.0822 9.02879 29.0408 9.20994 28.9501 9.36748C28.8593 9.52501 28.7235 9.65174 28.5601 9.73136C28.3764 9.78116 28.1875 9.80902 27.9972 9.81436C23.5373 9.82036 19.0774 9.82234 14.6175 9.82034Z" fill="#003C57"/>
<path d="M14.6055 15.5525C19.0628 15.5525 23.5197 15.5525 27.9762 15.5525C28.1667 15.5538 28.356 15.5811 28.5391 15.6335C28.6862 15.6986 28.813 15.802 28.9066 15.9328C29.0001 16.0636 29.057 16.2171 29.0711 16.3774C29.0526 16.5366 28.9924 16.6882 28.8965 16.8167C28.8007 16.9453 28.6725 17.0461 28.5251 17.1092C28.3713 17.1579 28.2114 17.1848 28.0502 17.1892C19.0997 17.1932 10.1489 17.1932 1.19783 17.1892C1.05485 17.2001 0.911191 17.1808 0.776149 17.1326C0.641107 17.0844 0.517702 17.0082 0.413968 16.9092C0.309762 16.8032 0.238708 16.6691 0.209414 16.5234C0.18012 16.3776 0.193874 16.2265 0.249019 16.0884C0.301093 15.9461 0.392188 15.8214 0.511913 15.7285C0.631637 15.6357 0.775144 15.5785 0.925904 15.5635C1.05829 15.5443 1.19225 15.5379 1.32586 15.5445L14.6055 15.5525Z" fill="#003C57"/>
<path d="M14.6114 2.44402C10.1689 2.44402 5.72665 2.44402 1.28476 2.44402C1.08024 2.44936 0.876617 2.41544 0.684884 2.34406C0.526206 2.28468 0.392357 2.17323 0.305189 2.02795C0.218022 1.88267 0.182645 1.7121 0.204926 1.54415C0.226807 1.37207 0.302974 1.21147 0.422357 1.08561C0.541739 0.959757 0.698123 0.875248 0.868813 0.84432C0.977054 0.822463 1.08739 0.812377 1.1978 0.814296H28.0501C28.2722 0.78982 28.4957 0.844639 28.6813 0.969054C28.8668 1.09347 29.0023 1.27946 29.0639 1.49417C29.0758 1.67585 29.0328 1.85689 28.9404 2.0138C28.8481 2.1707 28.7106 2.29621 28.546 2.37402C28.3616 2.42156 28.1725 2.4484 27.9822 2.45403C23.5256 2.44936 19.0687 2.44602 14.6114 2.44402Z" fill="#003C57"/>
</g>
</g>
<defs>
<clipPath id="clip0_1_5">
<rect width="28.88" height="16.4" fill="white" transform="translate(0.200012 0.799805)"/>
</clipPath>
<clipPath id="clip1_1_5">
<rect width="28.88" height="16.3982" fill="white" transform="translate(0.200012 0.800781)"/>
</clipPath>
</defs>
</svg>
