<svg width="82" height="49" viewBox="0 0 82 49" fill="none" xmlns="http://www.w3.org/2000/svg">
<path d="M50.25 22.25L44.75 16.75M33.75 12.1667C33.75 13.0093 33.916 13.8437 34.2384 14.6222C34.5609 15.4007 35.0336 16.1081 35.6294 16.7039C36.2252 17.2998 36.9326 17.7724 37.7111 18.0949C38.4896 18.4174 39.324 18.5833 40.1667 18.5833C41.0093 18.5833 41.8437 18.4174 42.6222 18.0949C43.4007 17.7724 44.1081 17.2998 44.7039 16.7039C45.2998 16.1081 45.7724 15.4007 46.0949 14.6222C46.4174 13.8437 46.5833 13.0093 46.5833 12.1667C46.5833 11.324 46.4174 10.4896 46.0949 9.71111C45.7724 8.93261 45.2998 8.22524 44.7039 7.6294C44.1081 7.03356 43.4007 6.56091 42.6222 6.23844C41.8437 5.91597 41.0093 5.75 40.1667 5.75C39.324 5.75 38.4896 5.91597 37.7111 6.23844C36.9326 6.56091 36.2252 7.03356 35.6294 7.6294C35.0336 8.22524 34.5609 8.93261 34.2384 9.71111C33.916 10.4896 33.75 11.324 33.75 12.1667Z" stroke="#003C57" stroke-width="2" stroke-linecap="round" stroke-linejoin="round"/>
<path d="M24.6122 32.936C25.0882 32.936 25.5022 32.99 25.8542 33.098C26.2102 33.202 26.4922 33.314 26.7002 33.434C26.9122 33.554 27.0402 33.632 27.0842 33.668L26.3522 34.886C26.2882 34.834 26.1782 34.762 26.0222 34.67C25.8702 34.574 25.6862 34.49 25.4702 34.418C25.2542 34.342 25.0202 34.304 24.7682 34.304C24.4042 34.304 24.1122 34.374 23.8922 34.514C23.6762 34.65 23.5682 34.848 23.5682 35.108C23.5682 35.284 23.6262 35.442 23.7422 35.582C23.8582 35.718 24.0282 35.846 24.2522 35.966C24.4802 36.086 24.7582 36.212 25.0862 36.344C25.3742 36.456 25.6482 36.586 25.9082 36.734C26.1722 36.882 26.4062 37.056 26.6102 37.256C26.8182 37.456 26.9822 37.688 27.1022 37.952C27.2262 38.216 27.2882 38.518 27.2882 38.858C27.2882 39.238 27.2102 39.57 27.0542 39.854C26.9022 40.138 26.6902 40.376 26.4182 40.568C26.1502 40.76 25.8422 40.904 25.4942 41C25.1462 41.096 24.7802 41.144 24.3962 41.144C23.8762 41.144 23.4082 41.084 22.9922 40.964C22.5802 40.84 22.2462 40.708 21.9902 40.568C21.7342 40.428 21.5842 40.338 21.5402 40.298L22.3082 39.032C22.3562 39.068 22.4462 39.126 22.5782 39.206C22.7142 39.286 22.8782 39.368 23.0702 39.452C23.2662 39.536 23.4782 39.608 23.7062 39.668C23.9382 39.728 24.1742 39.758 24.4142 39.758C24.8462 39.758 25.1722 39.668 25.3922 39.488C25.6122 39.308 25.7222 39.074 25.7222 38.786C25.7222 38.57 25.6522 38.38 25.5122 38.216C25.3722 38.052 25.1742 37.902 24.9182 37.766C24.6662 37.626 24.3642 37.484 24.0122 37.34C23.6602 37.192 23.3322 37.02 23.0282 36.824C22.7282 36.624 22.4862 36.38 22.3022 36.092C22.1182 35.8 22.0262 35.442 22.0262 35.018C22.0262 34.598 22.1442 34.232 22.3802 33.92C22.6202 33.608 22.9362 33.366 23.3282 33.194C23.7242 33.022 24.1522 32.936 24.6122 32.936ZM28.4624 33.08H33.3764V34.406H29.9504V36.386H33.3284V37.67H29.9504V39.674H33.3764V41H28.4624V33.08ZM37.1051 33.08H38.6111L41.6591 41H40.0631L39.4451 39.29H36.2771L35.6471 41H34.0451L37.1051 33.08ZM36.7691 37.964H38.9531L37.8671 34.892H37.8491L36.7691 37.964ZM42.3603 33.08H45.4083C45.8563 33.08 46.2583 33.174 46.6143 33.362C46.9703 33.546 47.2523 33.816 47.4603 34.172C47.6723 34.524 47.7783 34.95 47.7783 35.45C47.7783 35.946 47.6863 36.354 47.5023 36.674C47.3183 36.99 47.0963 37.228 46.8363 37.388C46.5803 37.548 46.3423 37.64 46.1223 37.664L48.0663 41H46.3743L44.6163 37.778H43.8543V41H42.3603V33.08ZM43.8543 36.722H44.8743C45.2543 36.722 45.5763 36.628 45.8403 36.44C46.1083 36.252 46.2423 35.936 46.2423 35.492C46.2423 35.048 46.1103 34.736 45.8463 34.556C45.5823 34.372 45.2623 34.28 44.8863 34.28H43.8543V36.722ZM53.038 39.662C53.454 39.662 53.824 39.604 54.148 39.488C54.472 39.368 54.71 39.25 54.862 39.134L55.504 40.412C55.32 40.572 55.002 40.734 54.55 40.898C54.102 41.062 53.566 41.144 52.942 41.144C52.358 41.144 51.812 41.042 51.304 40.838C50.796 40.63 50.35 40.342 49.966 39.974C49.582 39.602 49.282 39.168 49.066 38.672C48.85 38.172 48.742 37.632 48.742 37.052C48.742 36.472 48.848 35.932 49.06 35.432C49.276 34.928 49.576 34.49 49.96 34.118C50.344 33.746 50.79 33.456 51.298 33.248C51.81 33.04 52.358 32.936 52.942 32.936C53.566 32.936 54.102 33.018 54.55 33.182C55.002 33.346 55.32 33.508 55.504 33.668L54.862 34.946C54.71 34.83 54.472 34.714 54.148 34.598C53.824 34.478 53.454 34.418 53.038 34.418C52.614 34.418 52.236 34.486 51.904 34.622C51.576 34.758 51.296 34.948 51.064 35.192C50.836 35.432 50.662 35.71 50.542 36.026C50.422 36.342 50.362 36.678 50.362 37.034C50.362 37.394 50.422 37.734 50.542 38.054C50.662 38.37 50.836 38.65 51.064 38.894C51.296 39.134 51.576 39.322 51.904 39.458C52.236 39.594 52.614 39.662 53.038 39.662ZM61.2898 37.688H58.1458V41H56.6578V33.08H58.1458V36.368H61.2898V33.08H62.7778V41H61.2898V37.688Z" fill="#003C57"/>
</svg>
